<?xml version="1.0" standalone="no"?>
<!DOCTYPE svg PUBLIC "-//W3C//DTD SVG 20010904//EN"
 "http://www.w3.org/TR/2001/REC-SVG-20010904/DTD/svg10.dtd">
<svg version="1.0" xmlns="http://www.w3.org/2000/svg"
 width="600.000000pt" height="600.000000pt" viewBox="0 0 600.000000 600.000000"
 preserveAspectRatio="xMidYMid meet">
<metadata>
Created by potrace 1.14, written by Peter Selinger 2001-2017
</metadata>
<g transform="translate(0.000000,600.000000) scale(0.100000,-0.100000)"
fill="#000000" stroke="none">
<path d="M3130 5982 c-143 -43 -255 -155 -295 -295 -34 -117 3 -238 100 -332
31 -30 59 -54 63 -53 4 1 24 -6 44 -14 111 -49 284 32 307 144 9 41 -10 117
-39 158 -26 37 -101 74 -144 71 -110 -6 -180 -138 -96 -182 32 -18 70 -12 70
11 0 4 14 11 30 15 75 16 77 -61 3 -99 -43 -21 -69 -20 -123 8 -58 29 -111
113 -111 177 -1 24 0 46 1 49 1 3 3 15 6 28 17 95 174 202 294 202 59 0 213
-49 266 -85 119 -80 232 -233 304 -410 8 -19 25 -84 36 -134 3 -14 7 -28 10
-33 3 -4 9 -29 14 -56 4 -26 11 -58 15 -72 16 -63 20 -105 19 -245 0 -101 -4
-158 -13 -173 l-12 -23 -32 23 c-40 30 -154 88 -173 88 -8 0 -14 4 -14 8 0 5
-15 13 -32 19 -18 6 -64 23 -103 38 -38 15 -81 29 -95 32 -14 2 -32 6 -40 7
-8 2 -35 9 -60 16 -45 13 -307 23 -324 13 -4 -3 -31 -7 -60 -8 -75 -4 -127
-14 -241 -45 -22 -6 -76 -17 -120 -25 -75 -14 -235 -80 -235 -97 0 -5 -5 -8
-12 -8 -20 0 -116 -111 -147 -170 -17 -32 -33 -75 -37 -96 -3 -21 -14 -50 -23
-64 -23 -34 -51 -95 -51 -112 0 -8 -4 -18 -9 -24 -23 -23 -32 -195 -14 -259 8
-27 15 -54 17 -60 1 -5 9 -26 18 -45 8 -19 24 -57 33 -85 10 -27 29 -69 42
-93 57 -98 202 -261 275 -310 50 -32 67 -71 41 -89 -61 -46 -338 -49 -483 -6
-30 9 -61 18 -67 19 -50 9 -237 216 -272 302 -12 29 -11 39 10 95 29 77 31 83
30 129 0 60 -41 117 -100 139 -35 14 -109 13 -126 -1 -12 -10 -21 -5 -51 24
-20 20 -44 36 -53 37 -9 0 -25 3 -36 5 -30 8 -48 7 -94 -6 -31 -8 -48 -21 -73
-58 -18 -26 -34 -54 -35 -62 -5 -24 -6 -64 -2 -79 3 -9 -5 -15 -21 -17 -90
-10 -130 -47 -146 -133 -6 -31 -7 -35 -4 -41 1 -3 4 -16 6 -30 9 -50 69 -105
126 -116 63 -11 72 -14 80 -26 4 -7 11 -24 14 -38 3 -14 9 -32 15 -40 5 -8 12
-22 15 -30 15 -41 113 -234 155 -305 52 -87 132 -175 203 -224 59 -41 206 -97
276 -106 109 -14 375 0 480 24 76 18 83 16 77 -21 -5 -34 -69 -220 -108 -313
-7 -16 -13 -32 -14 -35 0 -3 -7 -30 -14 -60 -8 -30 -17 -59 -21 -65 -9 -10
-10 -16 -10 -38 0 -20 -44 -59 -114 -102 -36 -22 -66 -43 -66 -47 0 -5 -7 -8
-15 -8 -8 0 -15 -4 -15 -10 0 -5 -5 -10 -10 -10 -6 0 -18 -8 -29 -18 -10 -9
-37 -32 -60 -51 -121 -100 -238 -244 -300 -372 -26 -53 -33 -80 -33 -130 -1
-73 5 -123 20 -159 13 -34 86 -128 131 -168 43 -39 167 -114 268 -162 40 -18
73 -37 73 -41 0 -11 -115 -48 -231 -73 -174 -39 -200 -43 -207 -32 -37 57
-127 84 -189 56 -45 -20 -67 -43 -87 -91 -29 -70 -2 -145 63 -179 38 -19 42
-20 66 -20 9 0 23 -15 31 -34 20 -40 79 -76 135 -82 22 -2 44 -6 49 -9 5 -3
11 -1 15 5 3 5 15 10 25 10 10 0 34 14 52 30 18 17 28 30 23 30 -11 0 16 20
27 20 4 0 13 -20 19 -45 14 -54 54 -89 114 -101 80 -16 117 -4 160 53 19 25
35 51 35 58 0 7 19 16 43 20 23 4 51 9 62 11 26 5 46 10 65 16 8 3 62 20 120
39 58 18 144 53 192 77 97 49 118 76 112 145 -5 50 -26 73 -154 175 -103 81
-196 167 -211 194 -7 13 -4 21 14 33 26 17 61 10 89 -18 15 -15 111 -80 158
-106 76 -42 195 -101 206 -101 6 0 17 -7 24 -15 6 -8 15 -14 18 -13 4 1 14 -1
22 -5 21 -8 123 -40 135 -43 6 -1 30 -7 55 -14 25 -6 61 -15 80 -19 19 -5 42
-11 50 -14 8 -3 38 -8 65 -11 28 -3 61 -8 75 -11 68 -15 328 -2 402 21 9 3 26
7 38 9 31 6 90 26 137 47 55 24 56 23 98 -13 47 -42 88 -113 80 -138 -15 -47
-101 -176 -157 -234 -77 -80 -99 -111 -102 -145 -1 -17 -18 -44 -47 -72 -33
-33 -45 -54 -47 -79 -1 -19 -5 -37 -7 -39 -8 -9 26 -75 50 -98 58 -54 178 -53
220 2 10 14 32 18 73 16 15 -1 22 -8 22 -22 0 -32 48 -97 85 -114 62 -30 147
-16 203 33 12 10 22 24 22 31 0 6 4 20 10 30 9 17 12 17 38 -10 20 -20 42 -30
80 -35 46 -6 60 -3 107 20 66 32 76 48 78 124 2 49 -2 63 -26 95 -32 41 -63
57 -118 61 -20 1 -50 11 -65 22 -16 11 -43 25 -61 32 -17 7 -39 21 -49 32 -16
18 -15 19 7 28 13 5 33 18 44 28 11 10 72 58 136 106 164 122 201 166 216 257
13 74 6 314 -11 390 -10 41 -19 84 -21 95 -2 11 -8 36 -13 55 -5 19 -9 37 -10
40 0 3 -3 12 -5 20 -10 30 -28 105 -29 115 -1 19 -68 197 -91 244 -13 25 -36
70 -50 98 -38 74 -37 132 3 173 17 17 30 37 30 44 0 7 9 21 20 31 11 10 20 24
20 32 0 7 3 13 8 13 4 0 27 40 52 88 25 48 50 90 55 94 6 4 7 8 3 8 -4 0 0 19
8 43 9 23 17 51 20 61 5 26 19 39 46 43 36 6 96 50 114 85 20 38 25 113 10
148 -29 67 -102 115 -161 104 -35 -6 -39 11 -12 58 30 53 30 152 2 199 -26 41
-83 72 -138 76 -53 3 -118 -15 -132 -37 -9 -14 -21 -13 -23 3 -1 6 -17 86 -37
177 -20 91 -38 179 -40 196 -3 17 -12 58 -20 90 -9 32 -18 66 -20 74 -2 8 -10
34 -19 58 -8 23 -13 42 -11 42 7 0 -31 102 -59 159 -14 30 -26 58 -26 62 0 20
-174 289 -192 297 -5 2 -8 8 -8 14 0 11 -51 81 -62 86 -5 2 -8 7 -8 12 0 4
-16 24 -35 43 -29 29 -33 39 -27 63 13 54 3 538 -11 561 -3 5 -8 31 -11 59 -7
63 -72 249 -122 348 -45 90 -143 214 -239 305 -68 64 -177 127 -260 150 -57
16 -171 12 -235 -7z"/>
</g>
</svg>
